<svg xmlns="http://www.w3.org/2000/svg" width="1200" height="720" viewBox="0 0 1200 720" role="img" aria-label="Lumen dashboard preview">
  <defs>
    <linearGradient id="bg" x1="0" y1="0" x2="1" y2="1">
      <stop offset="0%" stop-color="#1e1b4b"/>
      <stop offset="100%" stop-color="#0f172a"/>
    </linearGradient>
    <linearGradient id="accent" x1="0" y1="0" x2="1" y2="0">
      <stop offset="0%" stop-color="#8b5cf6"/>
      <stop offset="100%" stop-color="#6366f1"/>
    </linearGradient>
  </defs>
  <rect width="1200" height="720" rx="24" fill="url(#bg)"/>
  <rect x="48" y="48" width="1104" height="64" rx="12" fill="#0f172a" stroke="#334155" stroke-width="1"/>
  <circle cx="80" cy="80" r="10" fill="#22c55e"/>
  <rect x="1104" y="64" width="32" height="32" rx="8" fill="#334155"/>
  <rect x="48" y="136" width="280" height="536" rx="16" fill="#0f172a" stroke="#334155" stroke-width="1"/>
  <rect x="72" y="168" width="120" height="12" rx="4" fill="#475569"/>
  <rect x="72" y="196" width="200" height="8" rx="4" fill="#334155"/>
  <rect x="72" y="240" width="232" height="40" rx="8" fill="#1e293b"/>
  <rect x="72" y="296" width="232" height="40" rx="8" fill="#1e293b"/>
  <rect x="72" y="352" width="232" height="40" rx="8" fill="#1e293b"/>
  <rect x="352" y="136" width="800" height="240" rx="16" fill="url(#accent)" opacity="0.15"/>
  <rect x="384" y="168" width="200" height="14" rx="4" fill="#e2e8f0"/>
  <rect x="384" y="196" width="420" height="10" rx="4" fill="#94a3b8"/>
  <rect x="384" y="228" width="360" height="120" rx="12" fill="#0f172a" stroke="#6366f1" stroke-width="1" opacity="0.6"/>
  <rect x="352" y="400" width="380" height="272" rx="16" fill="#0f172a" stroke="#334155" stroke-width="1"/>
  <rect x="384" y="440" width="140" height="12" rx="4" fill="#cbd5e1"/>
  <rect x="384" y="480" width="300" height="8" rx="4" fill="#475569"/>
  <rect x="384" y="520" width="300" height="8" rx="4" fill="#475569"/>
  <rect x="752" y="400" width="400" height="272" rx="16" fill="#0f172a" stroke="#334155" stroke-width="1"/>
  <rect x="784" y="440" width="160" height="160" rx="80" fill="#312e81" opacity="0.8"/>
  <path d="M784 520h160" stroke="#8b5cf6" stroke-width="3" fill="none" opacity="0.5"/>
</svg>
